<svg class="icon" style="width: 1em;height: 1em;vertical-align: middle;fill: currentColor;overflow: hidden;" viewBox="0 0 1024 1024" version="1.1" xmlns="http://www.w3.org/2000/svg"><path d="M405.9 712.2H246.1l18 18V585.8v-69.2c0-11.7 0.4-23.5 1.6-35.1 0.3-2.7 0.5-5.5 1-8.2-0.9 4.8 0 0.2 0.1-0.6 0.2-1.4 0.4-2.7 0.6-4.1 0.9-5.8 2.1-11.6 3.4-17.4 2.5-10.9 5.5-21.7 9.2-32.3 1.7-5 3.6-10 5.6-15 0.3-0.8 1.8-5.1 0.2-0.6 0.4-1.2 1.1-2.4 1.6-3.6l3.9-8.4c4.8-9.9 10.1-19.5 15.9-28.8 2.8-4.4 5.7-8.8 8.7-13.1 1.5-2.1 3-4.3 4.6-6.4 0.8-1.1 1.6-2.1 2.4-3.1-3 3.9 0.6-0.8 1.2-1.5 6.8-8.5 14.1-16.7 21.8-24.4 7.4-7.4 15.2-14.4 23.3-21 1-0.8 2-1.6 3.1-2.5 0.7-0.5 4.2-3.2 0.5-0.4 2.1-1.6 4.2-3.2 6.3-4.7 4.6-3.3 9.3-6.5 14.1-9.6 9.2-5.9 18.8-11.3 28.6-16.2 4.7-2.3 9.5-4.9 14.4-6.7-4.5 1.5-0.2 0.1 0.6-0.2 1.2-0.5 2.5-1 3.7-1.5l8.7-3.3c10.5-3.8 21.3-6.9 32.2-9.5 5.3-1.2 10.6-2.3 16-3.3 2.7-0.5 5.4-0.9 8.1-1.3 0.9-0.1 5.5-1 0.6-0.1 1.8-0.3 3.7-0.5 5.5-0.7 12.3-1.4 24.7-1.8 37.1-1.8h229.4l-18-18v138.3c0 18.3 0 37.1-3.2 55.2 0.7-4.1-0.1 0.5-0.3 2-0.2 1.6-0.5 3.2-0.7 4.7-0.6 3.8-1.3 7.6-2 11.4-1.3 6.9-2.9 13.7-4.6 20.5-3.5 13.7-7.7 27.1-12.8 40.3l-3.9 9.9c-0.3 0.9-1.1 3.2 0.3-0.6-0.2 0.6-0.5 1.2-0.8 1.8-0.8 1.8-1.6 3.7-2.4 5.5-2.9 6.4-6 12.8-9.3 19-6.4 12.3-13.5 24.2-21.3 35.6-3.8 5.6-7.8 11.1-11.9 16.6-0.5 0.7-1.1 1.4-1.6 2.1 2.5-3.2 0.9-1.2 0.4-0.5-1.1 1.4-2.2 2.7-3.3 4.1-2.2 2.7-4.4 5.4-6.7 8.1-9 10.5-18.5 20.4-28.5 29.8-5.1 4.8-10.3 9.4-15.7 13.9-2.5 2.1-5.1 4.2-7.6 6.2-0.7 0.5-1.4 1.1-2.1 1.6 0.4-0.3 3.1-2.4 0.5-0.4-1.4 1.1-2.8 2.1-4.2 3.2-11.3 8.4-23 16.1-35.2 23.1-12 7-24.4 13.3-37.2 18.8-1.6 0.7-4.5 2-1.2 0.5-1.6 0.7-3.3 1.4-4.9 2-3.3 1.3-6.6 2.6-10 3.8-6.7 2.5-13.5 4.8-20.3 6.8-13.8 4.2-27.9 7.6-42.1 10.2-3.1 0.6-6.3 1.1-9.5 1.6-1.8 0.3-3.6 0.6-5.4 0.8 5-0.5-1.7 0.2-2.7 0.3-7.4 0.9-14.7 1.5-22.1 1.9-7.4 0.7-14.7 0.9-21.9 0.9-9.4 0-18.4 8.3-18 18 0.4 9.7 7.9 18 18 18 60.9-0.1 121.1-14.4 175.6-41.7 52.6-26.4 98.4-65.1 134.2-111.6 35.4-46 60.4-100.2 72.1-157 5.4-26.5 8.2-53.5 8.2-80.5v-37.1-104.8-2.2c0-9.7-8.2-18-18-18H556.4c-29.9 0-59.5 2.2-88.5 9.4-45.6 11.3-87.8 33.2-124.2 62.8-35 28.4-63.9 65.1-83.5 105.6-21 43.3-32 90.8-32.1 139V730.2c0 9.7 8.2 18 18 18h159.8c9.4 0 18.4-8.3 18-18-0.4-9.7-7.9-18-18-18z" fill="#2c2c2c" /><path d="M264 810.7v-50.5c0-2.6 0-5.1 0.1-7.7 0.1-2.3 0.3-4.6 0.5-7 0.4-4.4-0.6 3.1-0.1 0.3 0.3-1.5 0.5-3.1 0.8-4.6 2.1-11.4 5.5-22.6 9.7-33.4 0.5-1.4 1.1-2.7 1.6-4.1 1.1-2.8-0.3 0.9-0.5 1.2 0.4-0.6 0.6-1.4 0.9-2.1 1.4-3.2 2.8-6.3 4.3-9.4 2.9-6.1 6.1-12 9.5-17.8 3.6-6.2 7.4-12.3 11.4-18.2 1.9-2.8 3.8-5.5 5.8-8.2 1.1-1.5 2.2-3.1 3.4-4.6 0.5-0.7 1-1.4 1.5-2-1.3 1.6-1.5 1.9-0.1 0.1 9.3-11.6 19.2-22.6 30.1-32.7 5.4-5 11-9.7 16.7-14.3 0.8-0.6 2.3-2.2-0.6 0.4 0.6-0.6 1.4-1.1 2.1-1.5l4.2-3c3.1-2.2 6.3-4.4 9.6-6.5 6.8-4.3 13.8-8.3 21.1-11.8l5.7-2.7c0.7-0.3 1.6-0.8 2.3-1-1.9 0.5-2.5 1-0.2 0.1 3.7-1.5 7.4-2.9 11.2-4.1 7.8-2.5 15.7-4.5 23.8-5.8 0.8-0.1 1.7-0.2 2.5-0.4 2.3-0.4-3.9 0.4-0.4 0.1 2.1-0.2 4.2-0.5 6.3-0.6 3.8-0.3 7.6-0.4 11.5-0.4 9.4 0 18.4-8.3 18-18-0.4-9.8-7.9-18-18-18-64.4 0-122.7 38-163.5 85.5-19.5 22.7-36.4 47.9-48.5 75.2-10.3 23.2-18.4 47.9-18.6 73.5-0.1 18 0 36 0 54 0 9.4 8.3 18.4 18 18 9.7-0.4 17.9-7.9 17.9-18z" fill="#2c2c2c" /></svg>